<svg width="35" height="35" xmlns="http://www.w3.org/2000/svg">
 <title>SEO_043-sitemap-organization-hierachy-structure Copy</title>

 <desc>Created with Sketch.</desc>
 <g>
  <title>background</title>
  <rect fill="none" id="canvas_background" height="37" width="37" y="-1" x="-1"/>
 </g>
 <g>
  <title>Layer 1</title>
  <ellipse stroke="#7030a0" ry="15.839416" rx="15.839416" id="svg_11" cy="17.441833" cx="17.445256" stroke-width="1.5" fill="#7030a0"/>
  <g id="svg_1" fill-rule="evenodd" fill="none">
   <g id="svg_2" fill="#ffffff">
    <g id="svg_3">
     <rect id="svg_4" height="8" width="1" y="12.036496" x="16.839416"/>
     <path id="svg_5" d="m26.839416,17.045866c0,-0.55746 -0.45093,-1.00937 -0.99477,-1.00937l-17.01046,0c-0.5494,0 -0.99477,0.44335 -0.99477,1.00937l0,2.99063l1,0l0,-3l17,0l0,3l1,0l0,-2.99063z"/>
     <path id="svg_6" d="m22.839416,8.534196c0,-0.27487 -0.22975,-0.4977 -0.50123,-0.4977l-9.99754,0c-0.27682,0 -0.50123,0.21484 -0.50123,0.4977l0,4.0046c0,0.27487 0.22975,0.4977 0.50123,0.4977l9.99754,0c0.27682,0 0.50123,-0.21484 0.50123,-0.4977l0,-4.0046z"/>
     <path id="svg_7" d="m10.839416,21.534196c0,-0.27487 -0.21484,-0.4977 -0.4977,-0.4977l-4.0046,0c-0.27487,0 -0.4977,0.21484 -0.4977,0.4977l0,4.0046c0,0.27487 0.21484,0.4977 0.4977,0.4977l4.0046,0c0.27487,0 0.4977,-0.21484 0.4977,-0.4977l0,-4.0046z"/>
     <path id="svg_8" d="m19.839416,21.534196c0,-0.27487 -0.21484,-0.4977 -0.4977,-0.4977l-4.0046,0c-0.27487,0 -0.4977,0.21484 -0.4977,0.4977l0,4.0046c0,0.27487 0.21484,0.4977 0.4977,0.4977l4.0046,0c0.27487,0 0.4977,-0.21484 0.4977,-0.4977l0,-4.0046z"/>
     <path id="svg_9" d="m28.839416,21.534196c0,-0.27487 -0.21484,-0.4977 -0.4977,-0.4977l-4.0046,0c-0.27487,0 -0.4977,0.21484 -0.4977,0.4977l0,4.0046c0,0.27487 0.21484,0.4977 0.4977,0.4977l4.0046,0c0.27487,0 0.4977,-0.21484 0.4977,-0.4977l0,-4.0046z"/>
    </g>
   </g>
  </g>
 </g>
</svg>